<svg id="Layer_1" data-name="Layer 1" xmlns="http://www.w3.org/2000/svg" viewBox="0 0 385.94 72.85"><defs><style>.cls-1{fill:#fff27b;stroke:#323232;stroke-miterlimit:10;stroke-width:0.5px;}</style></defs><path class="cls-1" d="M155.33,20H114.59a5.76,5.76,0,0,1-.55-2.54c0-4.65,4.22-8.68,10.9-8.68,6.88,0,13.32,3.79,19.57,9.73H145L146.66,16C137.17,6.5,128.73,2.28,120.92,2.28c-9,0-13.36,5.7-13.36,11,0,2.38,1,4.45,3,6.76H.84l-.55.74L3,26.11H37v5.62H17.67l-.54.67L19.59,38c4.69.63,6.87,1.92,6.87,4.15A6.19,6.19,0,0,1,20.21,48c-5,0-9.45-4.76-13.59-15.23L3,34.55C8.85,49,15.41,55.33,22.6,55.33c5.89,0,9.18-4.3,9.18-8.36,0-2.77-.79-5-2.86-8.59H37l-.16,21,6.22,1.8.54-.39-.15-34.65H73.77v5.08A72.61,72.61,0,0,0,61.5,29.9C51.23,29.9,50.84,35,50.84,36c0,1.64,1.09,3.67,3.28,6s3.83,3.28,5.16,3.28a3.57,3.57,0,0,0,2.3-.86,3.61,3.61,0,0,0,1.09-3.12,44.54,44.54,0,0,0-.35-4.54A22.52,22.52,0,0,1,68,36.15a53.69,53.69,0,0,1,5.74.27v3C68.89,40.52,68,42.2,68,44c0,2,1.29,4.1,3.47,6.21,2.5,2.35,4.07,3.4,5.32,3.4a3.44,3.44,0,0,0,2-.7c1.29-.94,1.44-1.6,1.44-6.64H92.75l-.19,13.12,6.21,1.8.55-.39-.16-34.65h10.19l-.15,33.2,6.29,1.84.54-.39-.15-34.65H143v4.53c0,1.06-.35,1.49-1.41,1.49H137.6c-10.82,0-13.64,5.39-13.64,10.42,0,4.58,2.74,8.33,5.47,10.9a16.42,16.42,0,0,0,11.33,4.69,16.74,16.74,0,0,0,7.66-1.87,5.56,5.56,0,0,1,1.83,4.06c0,2.42-2.07,4.69-5.43,6.8l6.57,5.23h.27c3-1.91,5-4.88,5-8.13,0-3.67-2.07-6.36-5.47-9.57,2.19-1.79,3.44-3.82,3.44-6.13a6.53,6.53,0,0,0-6.37-6.68c-3.09,0-5.55,1.88-5.55,5.12a5.83,5.83,0,0,0,1.14,3.59,11.44,11.44,0,0,1-6.64,1.92,6.24,6.24,0,0,1-6.53-6.6c0-4.22,3.4-7.74,13.67-7.74h4.5l.58-.82,0-11.21h31v8.71a85.24,85.24,0,0,0-11.52-.94c-10.28,0-10.86,5.2-10.86,6.21,0,1.64,1.09,3.68,3.28,6s4,3.44,5.35,3.44a3.41,3.41,0,0,0,3.4-4,37.89,37.89,0,0,0-.35-4.29,22.31,22.31,0,0,1,5.7-.59c1.83,0,3.2,0,5,.2l-.2,18.51,6.21,1.8.55-.39-.16-34.65h6.8l.55-.74L191.54,20ZM92.71,39.59H80.06V26.11H92.71Z"/><path class="cls-1" d="M348.92,20H342.4C336.07,6.42,333.22.25,325.33.25a30.34,30.34,0,0,0-8.09,1.09l3,7.35h.16A27.05,27.05,0,0,1,328,7.59c5.66,0,7.46,4.69,10.31,12.43H207.05l-.55.74,2.66,5.35h8.71a27.77,27.77,0,0,1,.51,5.43,19.59,19.59,0,0,1-.59,5.16,30.9,30.9,0,0,0-3.28-.24,3.82,3.82,0,0,0-4,4.1c0,1.57.89,3.91,2.89,6.92,3.82,5.82,9.45,11.13,16,16.09H230l2.93-6.52c-6-2.85-10.7-5.82-13.79-9A20.17,20.17,0,0,0,223.53,44a22.18,22.18,0,0,0,9.14,2.11,47.37,47.37,0,0,0,5.24-.27l-.2,13.51,6.21,1.8.55-.39-.15-34.65H258.1v12.5c-5.27,1.13-6.21,2.81-6.21,4.57,0,2,1.29,4.1,3.48,6.21,2.5,2.34,4.41,3.4,5.7,3.4a3.52,3.52,0,0,0,2-.7c1.28-.94,1.44-1.61,1.44-6.64h12.58l-.2,13.9,6.21,1.8.55-.39-.16-34.65h10.2l-.16,33.2,6.29,1.84.55-.39-.16-34.65H319a11.66,11.66,0,0,1,.32,3c0,2.89-.59,4.65-1.45,5.78-1.21-.12-3-.16-4.84-.16a4,4,0,0,0-3.67,1.64,4.2,4.2,0,0,0-.67,2.19,10.17,10.17,0,0,0,1.49,4c3.71,6.88,10,13.17,17.93,19.11h.58l3-6.64c-6.06-2.89-11.17-6.06-14.42-9.57,5-2.78,8.52-6.72,8.52-14.54a25.42,25.42,0,0,0-.43-4.8h12.38l-.15,33.2,6.29,1.84.54-.39-.15-34.65H371.7v4.41a101,101,0,0,0-11.1.36c-5.35.54-8.08,4.1-8.08,7.65,0,3.28,1.8,6.21,4.84,9.42a9.93,9.93,0,0,0-1.48,5.15c0,9.42,10.39,16.17,23.86,19.49l.32,0L383,66.23c-12.93-1.14-20.82-4.14-20.82-10,0-5.71,7.26-8.91,12-8.91,2.54,0,3.36.74,3.36,1.37,0,1.83-2.82,4-8,6.52l5.23,5.59c4.81-2.19,7.19-4.92,7.19-8.6a13.29,13.29,0,0,0-1.72-6c-1.87-3.52-4.84-5.39-9.3-5.39a17.19,17.19,0,0,0-11.13,4.1,4.51,4.51,0,0,1-1-3.13c0-2.26,2.34-4.18,5.93-4.72a39,39,0,0,1,5.9-.35c2.39,0,4.42,0,6.8.11l.7-.78,0-9.92h7l.54-.74L383,20Zm-111,18.51a29,29,0,0,1-7,.74,34.37,34.37,0,0,1-6.29-.62,32.75,32.75,0,0,0,.19-4,44.44,44.44,0,0,0-.82-8.52h13.91Zm39.18.27H264.39V26.11h12.66Z"/></svg>